<?xml version="1.0" encoding="utf-8"?>
<!-- Generator: Adobe Illustrator 16.0.0, SVG Export Plug-In . SVG Version: 6.00 Build 0)  -->
<!DOCTYPE svg PUBLIC "-//W3C//DTD SVG 1.1//EN" "http://www.w3.org/Graphics/SVG/1.1/DTD/svg11.dtd">
<svg version="1.1" id="Layer_1" xmlns="http://www.w3.org/2000/svg" xmlns:xlink="http://www.w3.org/1999/xlink" x="0px" y="0px"
	 width="841.89px" height="200px" viewBox="0 0 841.89 200" enable-background="new 0 0 841.89 200" xml:space="preserve">
<circle fill="#688DBE" cx="150.838" cy="53.675" r="2.55"/>
<circle fill="#688DBE" cx="157.42" cy="53.675" r="2.551"/>
<circle fill="#688DBE" cx="164.002" cy="53.675" r="2.55"/>
<circle fill="#688DBE" cx="170.583" cy="53.675" r="2.551"/>
<circle fill="#688DBE" cx="144.257" cy="60.256" r="2.551"/>
<circle fill="#688DBE" cx="157.42" cy="60.256" r="2.551"/>
<circle fill="#688DBE" cx="164.002" cy="60.256" r="2.55"/>
<circle fill="#688DBE" cx="177.165" cy="60.256" r="2.55"/>
<circle fill="#688DBE" cx="183.746" cy="60.256" r="2.55"/>
<circle fill="#688DBE" cx="190.328" cy="60.256" r="2.55"/>
<circle fill="#688DBE" cx="137.675" cy="66.839" r="2.55"/>
<circle fill="#688DBE" cx="144.257" cy="66.839" r="2.551"/>
<circle fill="#688DBE" cx="150.838" cy="66.839" r="2.55"/>
<circle fill="#688DBE" cx="157.42" cy="66.839" r="2.551"/>
<circle fill="#688DBE" cx="164.002" cy="66.839" r="2.55"/>
<circle fill="#688DBE" cx="170.583" cy="66.839" r="2.551"/>
<circle fill="#688DBE" cx="177.165" cy="66.839" r="2.55"/>
<circle fill="#688DBE" cx="183.746" cy="66.839" r="2.55"/>
<circle fill="#688DBE" cx="190.328" cy="66.839" r="2.55"/>
<circle fill="#688DBE" cx="196.909" cy="66.839" r="2.551"/>
<circle fill="#688DBE" cx="137.675" cy="73.419" r="2.55"/>
<circle fill="#688DBE" cx="144.257" cy="73.419" r="2.551"/>
<circle fill="#688DBE" cx="150.838" cy="73.419" r="2.55"/>
<circle fill="#688DBE" cx="157.42" cy="73.419" r="2.551"/>
<circle fill="#688DBE" cx="164.002" cy="73.419" r="2.55"/>
<circle fill="#688DBE" cx="203.491" cy="73.419" r="2.55"/>
<circle fill="#688DBE" cx="170.583" cy="73.419" r="2.551"/>
<circle fill="#688DBE" cx="177.165" cy="73.419" r="2.55"/>
<circle fill="#688DBE" cx="183.746" cy="73.419" r="2.55"/>
<circle fill="#688DBE" cx="190.328" cy="73.419" r="2.55"/>
<circle fill="#688DBE" cx="196.909" cy="73.419" r="2.551"/>
<circle fill="#688DBE" cx="137.675" cy="80.002" r="2.55"/>
<circle fill="#688DBE" cx="150.838" cy="80.002" r="2.55"/>
<circle fill="#688DBE" cx="157.42" cy="80.002" r="2.551"/>
<circle fill="#688DBE" cx="164.002" cy="80.002" r="2.55"/>
<circle fill="#688DBE" cx="203.491" cy="80.002" r="2.55"/>
<circle fill="#688DBE" cx="210.073" cy="80.002" r="2.55"/>
<circle fill="#688DBE" cx="170.583" cy="80.002" r="2.551"/>
<circle fill="#688DBE" cx="177.165" cy="80.002" r="2.55"/>
<circle fill="#688DBE" cx="183.746" cy="80.002" r="2.55"/>
<circle fill="#688DBE" cx="190.328" cy="80.002" r="2.55"/>
<circle fill="#688DBE" cx="137.675" cy="86.583" r="2.55"/>
<circle fill="#688DBE" cx="144.257" cy="86.583" r="2.551"/>
<circle fill="#688DBE" cx="150.838" cy="86.583" r="2.55"/>
<circle fill="#688DBE" cx="203.491" cy="86.583" r="2.55"/>
<circle fill="#688DBE" cx="210.073" cy="86.583" r="2.55"/>
<circle fill="#688DBE" cx="216.654" cy="86.583" r="2.55"/>
<circle fill="#688DBE" cx="223.236" cy="86.583" r="2.551"/>
<circle fill="#688DBE" cx="170.583" cy="86.583" r="2.551"/>
<circle fill="#688DBE" cx="177.165" cy="86.583" r="2.55"/>
<circle fill="#688DBE" cx="183.746" cy="86.583" r="2.55"/>
<circle fill="#688DBE" cx="190.328" cy="86.583" r="2.55"/>
<circle fill="#688DBE" cx="196.909" cy="86.583" r="2.551"/>
<circle fill="#688DBE" cx="144.257" cy="93.166" r="2.551"/>
<circle fill="#688DBE" cx="157.42" cy="93.166" r="2.551"/>
<circle fill="#688DBE" cx="164.002" cy="93.166" r="2.55"/>
<circle fill="#688DBE" cx="203.491" cy="93.166" r="2.55"/>
<circle fill="#688DBE" cx="210.073" cy="93.166" r="2.55"/>
<circle fill="#688DBE" cx="216.654" cy="93.166" r="2.55"/>
<circle fill="#688DBE" cx="170.583" cy="93.166" r="2.551"/>
<circle fill="#688DBE" cx="177.165" cy="93.166" r="2.55"/>
<circle fill="#688DBE" cx="183.746" cy="93.166" r="2.55"/>
<circle fill="#688DBE" cx="190.328" cy="93.166" r="2.55"/>
<circle fill="#688DBE" cx="210.073" cy="99.746" r="2.55"/>
<circle fill="#688DBE" cx="216.654" cy="99.746" r="2.55"/>
<circle fill="#688DBE" cx="170.583" cy="99.746" r="2.551"/>
<circle fill="#688DBE" cx="177.165" cy="99.746" r="2.55"/>
<circle fill="#688DBE" cx="183.746" cy="99.746" r="2.55"/>
<circle fill="#688DBE" cx="190.328" cy="99.746" r="2.55"/>
<circle fill="#688DBE" cx="196.909" cy="99.746" r="2.551"/>
<circle fill="#688DBE" cx="210.073" cy="106.328" r="2.55"/>
<circle fill="#688DBE" cx="170.583" cy="106.328" r="2.551"/>
<circle fill="#688DBE" cx="177.165" cy="106.328" r="2.55"/>
<circle fill="#688DBE" cx="183.746" cy="106.328" r="2.55"/>
<circle fill="#688DBE" cx="190.328" cy="106.328" r="2.55"/>
<circle fill="#688DBE" cx="196.909" cy="106.328" r="2.551"/>
<circle fill="#688DBE" cx="203.491" cy="112.909" r="2.55"/>
<circle fill="#688DBE" cx="210.073" cy="112.909" r="2.55"/>
<circle fill="#688DBE" cx="177.165" cy="112.909" r="2.55"/>
<circle fill="#688DBE" cx="183.746" cy="112.909" r="2.55"/>
<circle fill="#688DBE" cx="190.328" cy="112.909" r="2.55"/>
<circle fill="#688DBE" cx="196.909" cy="112.909" r="2.551"/>
<circle fill="#688DBE" cx="203.491" cy="119.491" r="2.55"/>
<circle fill="#688DBE" cx="210.073" cy="119.491" r="2.55"/>
<circle fill="#688DBE" cx="223.236" cy="119.491" r="2.551"/>
<circle fill="#688DBE" cx="177.165" cy="119.491" r="2.55"/>
<circle fill="#688DBE" cx="183.746" cy="119.491" r="2.55"/>
<circle fill="#688DBE" cx="190.328" cy="119.491" r="2.55"/>
<circle fill="#688DBE" cx="203.491" cy="126.072" r="2.55"/>
<circle fill="#688DBE" cx="216.654" cy="126.072" r="2.55"/>
<circle fill="#688DBE" cx="223.236" cy="126.072" r="2.551"/>
<circle fill="#688DBE" cx="170.583" cy="126.072" r="2.551"/>
<circle fill="#688DBE" cx="177.165" cy="126.072" r="2.55"/>
<circle fill="#688DBE" cx="183.746" cy="126.072" r="2.55"/>
<circle fill="#688DBE" cx="190.328" cy="126.072" r="2.55"/>
<circle fill="#688DBE" cx="196.909" cy="126.072" r="2.551"/>
<circle fill="#688DBE" cx="203.491" cy="132.654" r="2.55"/>
<circle fill="#688DBE" cx="216.654" cy="132.654" r="2.55"/>
<circle fill="#688DBE" cx="177.165" cy="132.654" r="2.55"/>
<circle fill="#688DBE" cx="196.909" cy="132.654" r="2.551"/>
<circle fill="#688DBE" cx="177.165" cy="139.234" r="2.55"/>
<circle fill="#688DBE" cx="183.746" cy="139.234" r="2.55"/>
<circle fill="#688DBE" cx="190.328" cy="139.234" r="2.55"/>
<circle fill="#688DBE" cx="196.909" cy="139.234" r="2.551"/>
<circle fill="#688DBE" cx="190.328" cy="145.816" r="2.55"/>
<circle fill="#E03A26" cx="150.838" cy="60.256" r="2.55"/>
<circle fill="#E03A26" cx="170.583" cy="60.256" r="2.551"/>
<circle fill="#E03A26" cx="196.909" cy="60.256" r="2.551"/>
<circle fill="#E03A26" cx="144.257" cy="80.002" r="2.551"/>
<circle fill="#E03A26" cx="196.909" cy="80.002" r="2.551"/>
<circle fill="#E03A26" cx="157.42" cy="86.583" r="2.551"/>
<circle fill="#E03A26" cx="164.002" cy="86.583" r="2.55"/>
<circle fill="#E03A26" cx="150.838" cy="93.166" r="2.55"/>
<circle fill="#E03A26" cx="196.909" cy="93.166" r="2.551"/>
<circle fill="#E03A26" cx="203.491" cy="99.746" r="2.55"/>
<circle fill="#E03A26" cx="203.491" cy="106.328" r="2.55"/>
<circle fill="#E03A26" cx="196.909" cy="119.491" r="2.551"/>
<circle fill="#E03A26" cx="229.817" cy="126.072" r="2.55"/>
<circle fill="#E03A26" cx="183.746" cy="132.654" r="2.55"/>
<circle fill="#E03A26" cx="190.328" cy="132.654" r="2.55"/>
<circle fill="#E03A26" cx="183.746" cy="145.816" r="2.55"/>
<g>
	<path fill="#27405E" d="M284.664,110.72h-8.813V95.665h-13.012v15.055h-8.813V76.548h8.813v12.507h13.012V76.548h8.813V110.72z"/>
	<path fill="#27405E" d="M315.807,94.701c0.75,0.643,1.346,1.393,1.79,2.249c0.443,0.857,0.666,1.997,0.666,3.419
		c0,1.607-0.318,3.106-0.953,4.498c-0.635,1.393-1.61,2.586-2.926,3.58c-1.285,0.965-2.796,1.703-4.532,2.215
		c-1.737,0.513-3.844,0.77-6.323,0.77c-2.831,0-5.259-0.223-7.287-0.666s-3.676-0.941-4.945-1.492v-7.504h0.895
		c1.315,0.796,2.888,1.484,4.716,2.065c1.828,0.581,3.5,0.872,5.014,0.872c0.887,0,1.851-0.072,2.892-0.218
		c1.04-0.146,1.92-0.463,2.639-0.952c0.566-0.383,1.017-0.846,1.354-1.389c0.336-0.543,0.505-1.327,0.505-2.353
		c0-0.994-0.229-1.763-0.688-2.307c-0.459-0.542-1.063-0.929-1.813-1.159c-0.75-0.245-1.652-0.378-2.708-0.402
		c-1.056-0.022-2.035-0.034-2.938-0.034h-1.882V89.79h1.951c1.193,0,2.249-0.038,3.167-0.115c0.918-0.076,1.698-0.252,2.341-0.528
		c0.673-0.291,1.178-0.677,1.515-1.159c0.336-0.481,0.505-1.189,0.505-2.123c0-0.688-0.176-1.243-0.528-1.664
		c-0.352-0.421-0.796-0.753-1.331-0.999c-0.597-0.275-1.301-0.459-2.111-0.551c-0.811-0.092-1.507-0.138-2.088-0.138
		c-1.438,0-2.999,0.249-4.682,0.746c-1.683,0.498-3.313,1.213-4.888,2.146h-0.849v-7.413c1.254-0.505,2.96-0.99,5.118-1.457
		s4.345-0.7,6.563-0.7c2.157,0,4.046,0.188,5.668,0.563c1.622,0.375,2.96,0.876,4.016,1.503c1.254,0.75,2.188,1.66,2.8,2.731
		c0.612,1.071,0.918,2.326,0.918,3.764c0,1.897-0.589,3.591-1.767,5.083c-1.178,1.491-2.731,2.444-4.659,2.857v0.321
		c0.78,0.107,1.606,0.321,2.479,0.643S315.088,94.089,315.807,94.701z"/>
	<path fill="#27405E" d="M356.497,110.72h-9.101l-2.38-6.907h-12.646l-2.38,6.907h-8.881l12.622-34.171h10.144L356.497,110.72z
		 M342.897,97.547l-4.204-12.242l-4.205,12.242H342.897z"/>
	<path fill="#27405E" d="M389.705,100.255c0,1.652-0.332,3.129-0.998,4.429c-0.666,1.301-1.58,2.38-2.742,3.236
		c-1.347,1.01-2.827,1.729-4.441,2.157s-3.66,0.643-6.139,0.643h-14.917V76.548h13.265c2.754,0,4.77,0.092,6.047,0.275
		s2.543,0.589,3.798,1.216c1.3,0.658,2.268,1.542,2.903,2.65c0.635,1.11,0.953,2.375,0.953,3.798c0,1.652-0.436,3.11-1.308,4.372
		c-0.872,1.263-2.104,2.246-3.695,2.949v0.184c2.233,0.444,4.004,1.362,5.313,2.754C389.051,96.14,389.705,97.976,389.705,100.255z
		 M378.415,86.21c0-0.566-0.142-1.132-0.425-1.698c-0.283-0.566-0.784-0.987-1.503-1.262c-0.643-0.245-1.442-0.378-2.398-0.402
		c-0.956-0.022-2.299-0.034-4.027-0.034h-0.826v7.229h1.377c1.392,0,2.578-0.023,3.557-0.069c0.979-0.046,1.751-0.199,2.318-0.459
		c0.795-0.352,1.315-0.807,1.561-1.365C378.292,87.591,378.415,86.944,378.415,86.21z M380.549,100.117
		c0-1.086-0.21-1.924-0.63-2.513s-1.134-1.029-2.141-1.32c-0.687-0.199-1.634-0.306-2.84-0.321
		c-1.207-0.015-2.466-0.023-3.779-0.023h-1.924v8.515h0.641c2.474,0,4.245-0.008,5.313-0.023c1.068-0.016,2.054-0.214,2.955-0.597
		c0.916-0.382,1.546-0.892,1.89-1.526C380.377,101.674,380.549,100.943,380.549,100.117z"/>
	<path fill="#27405E" d="M403.385,81.276h-8.744v-6.265h8.744V81.276z M403.154,110.72h-8.284V84.948h8.284V110.72z"/>
	<path fill="#27405E" d="M436.34,97.845c0,4.239-1.235,7.577-3.706,10.017c-2.472,2.44-5.94,3.661-10.408,3.661
		c-4.467,0-7.937-1.221-10.407-3.661s-3.706-5.778-3.706-10.017c0-4.269,1.243-7.619,3.729-10.052
		c2.485-2.433,5.947-3.649,10.384-3.649c4.498,0,7.976,1.224,10.431,3.672C435.112,90.265,436.34,93.607,436.34,97.845z
		 M426.173,104.11c0.536-0.657,0.938-1.449,1.205-2.375s0.402-2.207,0.402-3.844c0-1.515-0.139-2.784-0.414-3.81
		c-0.275-1.025-0.657-1.843-1.146-2.456c-0.49-0.627-1.079-1.071-1.768-1.331c-0.688-0.26-1.431-0.39-2.227-0.39
		c-0.795,0-1.503,0.107-2.122,0.321c-0.62,0.214-1.213,0.643-1.778,1.285c-0.506,0.597-0.907,1.416-1.205,2.456
		c-0.299,1.041-0.447,2.349-0.447,3.924c0,1.408,0.129,2.627,0.39,3.661c0.26,1.032,0.643,1.862,1.147,2.489
		c0.489,0.598,1.074,1.033,1.756,1.309c0.681,0.275,1.457,0.413,2.329,0.413c0.749,0,1.465-0.126,2.146-0.379
		C425.121,105.132,425.699,104.707,426.173,104.11z"/>
	<path fill="#27405E" d="M472.854,110.72h-8.491l-14.504-23.454v23.454h-8.078V76.548h10.534l12.461,19.576V76.548h8.078V110.72z"/>
	<path fill="#27405E" d="M505.557,99.36h-18.91c0.122,2.019,0.891,3.565,2.307,4.636c1.415,1.07,3.5,1.605,6.254,1.605
		c1.744,0,3.434-0.313,5.071-0.94c1.637-0.627,2.93-1.3,3.878-2.02h0.918v6.632c-1.866,0.75-3.625,1.293-5.277,1.63
		s-3.481,0.505-5.485,0.505c-5.172,0-9.134-1.162-11.888-3.488c-2.754-2.325-4.131-5.638-4.131-9.937
		c0-4.253,1.304-7.623,3.913-10.109c2.608-2.486,6.185-3.729,10.729-3.729c4.191,0,7.344,1.06,9.455,3.179s3.167,5.167,3.167,9.145
		V99.36z M497.341,94.518c-0.046-1.729-0.475-3.029-1.285-3.901c-0.812-0.872-2.073-1.308-3.786-1.308
		c-1.592,0-2.9,0.413-3.925,1.239c-1.025,0.826-1.599,2.15-1.722,3.97H497.341z"/>
	<path fill="#27405E" d="M526.924,110.492c-0.888,0.229-1.828,0.408-2.822,0.538c-0.995,0.13-2.212,0.194-3.649,0.194
		c-3.213,0-5.604-0.65-7.172-1.951c-1.568-1.3-2.353-3.525-2.353-6.678V90.547h-3.396v-5.6h3.396v-7.367h8.285v7.367h7.711v5.6
		h-7.711v9.148c0,0.904,0.008,1.693,0.023,2.367c0.015,0.674,0.137,1.279,0.365,1.816c0.214,0.535,0.592,0.961,1.133,1.275
		c0.541,0.313,1.331,0.471,2.368,0.471c0.427,0,0.987-0.092,1.682-0.275s1.179-0.352,1.453-0.505h0.687V110.492z"/>
</g>
<g>
	<path fill="#698DBD" d="M262.235,131.992c0,0.567-0.1,1.122-0.298,1.663c-0.199,0.542-0.482,0.996-0.851,1.365
		c-0.504,0.499-1.067,0.876-1.688,1.131c-0.621,0.255-1.394,0.383-2.318,0.383h-2.033v4.125h-3.266v-12.664h5.375
		c0.805,0,1.484,0.069,2.037,0.208c0.553,0.14,1.042,0.348,1.467,0.626c0.51,0.334,0.9,0.762,1.169,1.284
		C262.101,130.635,262.235,131.261,262.235,131.992z M258.859,132.065c0-0.356-0.097-0.663-0.29-0.921s-0.417-0.438-0.672-0.539
		c-0.34-0.136-0.672-0.211-0.995-0.225s-0.754-0.021-1.292-0.021h-0.562v3.785h0.936c0.556,0,1.014-0.034,1.374-0.102
		c0.36-0.068,0.662-0.204,0.906-0.408c0.21-0.181,0.362-0.397,0.455-0.648C258.812,132.734,258.859,132.428,258.859,132.065z"/>
	<path fill="#698DBD" d="M269.814,139.647c-0.165,0.124-0.369,0.274-0.613,0.45c-0.244,0.176-0.473,0.314-0.688,0.417
		c-0.301,0.136-0.613,0.236-0.936,0.302c-0.323,0.065-0.678,0.098-1.063,0.098c-0.907,0-1.667-0.28-2.279-0.842
		s-0.918-1.278-0.918-2.151c0-0.698,0.156-1.268,0.468-1.71c0.312-0.442,0.754-0.791,1.327-1.046
		c0.567-0.255,1.27-0.437,2.109-0.545c0.839-0.107,1.709-0.187,2.611-0.237v-0.052c0-0.527-0.215-0.892-0.646-1.093
		c-0.431-0.201-1.066-0.302-1.905-0.302c-0.505,0-1.043,0.09-1.616,0.268c-0.573,0.179-0.983,0.316-1.233,0.413h-0.281v-2.305
		c0.323-0.085,0.849-0.187,1.578-0.303s1.458-0.174,2.19-0.174c1.741,0,2.998,0.268,3.772,0.804s1.161,1.376,1.161,2.521v6.498
		h-3.036V139.647z M269.814,138.161v-1.984c-0.414,0.034-0.862,0.081-1.344,0.141c-0.482,0.059-0.848,0.128-1.097,0.207
		c-0.307,0.097-0.541,0.236-0.702,0.42c-0.162,0.184-0.243,0.425-0.243,0.725c0,0.198,0.017,0.359,0.051,0.483
		c0.034,0.124,0.119,0.243,0.255,0.356c0.13,0.112,0.286,0.196,0.468,0.25s0.465,0.08,0.851,0.08c0.306,0,0.617-0.062,0.931-0.187
		C269.299,138.528,269.576,138.364,269.814,138.161z"/>
	<path fill="#698DBD" d="M284.91,140.659h-3.07v-4.737c0-0.386-0.02-0.77-0.06-1.152s-0.108-0.665-0.204-0.847
		c-0.113-0.209-0.279-0.362-0.498-0.459s-0.523-0.145-0.914-0.145c-0.278,0-0.56,0.046-0.847,0.136
		c-0.286,0.091-0.597,0.235-0.931,0.434v6.771h-3.07v-9.551h3.07v1.055c0.543-0.426,1.066-0.752,1.567-0.979
		c0.501-0.227,1.058-0.34,1.669-0.34c1.03,0,1.836,0.3,2.417,0.901c0.581,0.601,0.871,1.5,0.871,2.696V140.659z"/>
	<path fill="#698DBD" d="M304.855,140.659h-3.373l-0.882-2.56h-4.687l-0.882,2.56h-3.291l4.678-12.664h3.759L304.855,140.659z
		 M299.815,135.777l-1.558-4.537l-1.558,4.537H299.815z"/>
	<path fill="#698DBD" d="M312.349,129.671h-0.229c-0.136-0.04-0.313-0.085-0.53-0.137c-0.218-0.051-0.451-0.076-0.7-0.076
		c-0.599,0-1.005,0.107-1.217,0.323c-0.212,0.216-0.318,0.632-0.318,1.25v0.077h2.356v2.075h-2.254v7.476h-3.07v-7.476h-1.31v-2.075
		h1.31v-0.264c0-1.168,0.311-2.044,0.932-2.629c0.621-0.583,1.561-0.876,2.819-0.876c0.454,0,0.865,0.016,1.233,0.047
		c0.368,0.031,0.694,0.072,0.978,0.124V129.671z"/>
	<path fill="#698DBD" d="M320.089,134.025h-0.271c-0.13-0.046-0.34-0.079-0.628-0.103c-0.289-0.022-0.529-0.034-0.721-0.034
		c-0.436,0-0.82,0.029-1.154,0.086c-0.333,0.057-0.693,0.152-1.078,0.289v6.396h-3.07v-9.551h3.07v1.403
		c0.673-0.579,1.259-0.963,1.757-1.152c0.498-0.19,0.956-0.285,1.375-0.285c0.107,0,0.229,0.003,0.365,0.008
		c0.136,0.006,0.254,0.015,0.356,0.026V134.025z"/>
	<path fill="#698DBD" d="M324.63,129.747h-3.24v-2.321h3.24V129.747z M324.545,140.659h-3.07v-9.551h3.07V140.659z"/>
	<path fill="#698DBD" d="M332.056,140.914c-0.833,0-1.595-0.099-2.284-0.298c-0.689-0.198-1.289-0.504-1.799-0.918
		c-0.505-0.414-0.896-0.936-1.174-1.565c-0.278-0.629-0.417-1.366-0.417-2.211c0-0.89,0.149-1.658,0.446-2.305
		c0.298-0.646,0.713-1.183,1.246-1.607c0.516-0.402,1.111-0.697,1.786-0.885s1.375-0.28,2.101-0.28c0.652,0,1.253,0.07,1.803,0.212
		c0.55,0.143,1.063,0.326,1.54,0.553v2.611h-0.433c-0.119-0.102-0.262-0.221-0.429-0.357c-0.167-0.136-0.372-0.269-0.616-0.399
		c-0.232-0.125-0.487-0.229-0.764-0.311s-0.6-0.123-0.968-0.123c-0.815,0-1.442,0.259-1.881,0.778
		c-0.439,0.519-0.658,1.224-0.658,2.113c0,0.919,0.225,1.616,0.675,2.092c0.45,0.477,1.089,0.715,1.916,0.715
		c0.385,0,0.731-0.044,1.04-0.132s0.565-0.191,0.769-0.311c0.192-0.113,0.362-0.232,0.51-0.357c0.147-0.124,0.283-0.246,0.408-0.365
		h0.433v2.611c-0.482,0.227-0.985,0.406-1.51,0.54C333.271,140.848,332.691,140.914,332.056,140.914z"/>
	<path fill="#698DBD" d="M342.764,139.647c-0.165,0.124-0.369,0.274-0.613,0.45c-0.244,0.176-0.473,0.314-0.688,0.417
		c-0.301,0.136-0.613,0.236-0.936,0.302c-0.323,0.065-0.678,0.098-1.063,0.098c-0.907,0-1.667-0.28-2.279-0.842
		s-0.918-1.278-0.918-2.151c0-0.698,0.156-1.268,0.468-1.71c0.312-0.442,0.754-0.791,1.327-1.046
		c0.567-0.255,1.27-0.437,2.109-0.545c0.839-0.107,1.709-0.187,2.611-0.237v-0.052c0-0.527-0.215-0.892-0.646-1.093
		c-0.431-0.201-1.066-0.302-1.905-0.302c-0.505,0-1.043,0.09-1.616,0.268c-0.573,0.179-0.983,0.316-1.233,0.413H337.1v-2.305
		c0.323-0.085,0.849-0.187,1.578-0.303s1.458-0.174,2.19-0.174c1.741,0,2.998,0.268,3.772,0.804s1.161,1.376,1.161,2.521v6.498
		h-3.036V139.647z M342.764,138.161v-1.984c-0.414,0.034-0.862,0.081-1.344,0.141c-0.482,0.059-0.848,0.128-1.097,0.207
		c-0.307,0.097-0.541,0.236-0.702,0.42c-0.162,0.184-0.243,0.425-0.243,0.725c0,0.198,0.017,0.359,0.051,0.483
		c0.034,0.124,0.119,0.243,0.255,0.356c0.13,0.112,0.286,0.196,0.468,0.25s0.465,0.08,0.851,0.08c0.306,0,0.617-0.062,0.931-0.187
		C342.25,138.528,342.526,138.364,342.764,138.161z"/>
	<path fill="#698DBD" d="M357.861,140.659h-3.07v-4.737c0-0.386-0.02-0.77-0.06-1.152s-0.108-0.665-0.204-0.847
		c-0.113-0.209-0.279-0.362-0.498-0.459s-0.523-0.145-0.914-0.145c-0.278,0-0.56,0.046-0.847,0.136
		c-0.286,0.091-0.597,0.235-0.931,0.434v6.771h-3.07v-9.551h3.07v1.055c0.543-0.426,1.066-0.752,1.567-0.979
		c0.501-0.227,1.058-0.34,1.669-0.34c1.03,0,1.836,0.3,2.417,0.901c0.581,0.601,0.871,1.5,0.871,2.696V140.659z"/>
	<path fill="#698DBD" d="M376.938,136.781c0,0.612-0.123,1.159-0.37,1.641c-0.247,0.482-0.585,0.882-1.017,1.199
		c-0.499,0.375-1.047,0.642-1.646,0.8c-0.598,0.159-1.356,0.238-2.275,0.238h-5.528v-12.664h4.916c1.021,0,1.768,0.034,2.241,0.103
		c0.473,0.067,0.942,0.218,1.408,0.45c0.482,0.244,0.84,0.571,1.076,0.982s0.353,0.88,0.353,1.407c0,0.612-0.162,1.152-0.485,1.62
		c-0.323,0.469-0.78,0.833-1.369,1.094v0.067c0.828,0.165,1.484,0.505,1.969,1.021C376.696,135.256,376.938,135.937,376.938,136.781
		z M372.754,131.576c0-0.21-0.053-0.42-0.158-0.63s-0.291-0.365-0.557-0.468c-0.238-0.091-0.535-0.141-0.889-0.148
		c-0.354-0.009-0.852-0.013-1.493-0.013h-0.306v2.679h0.51c0.516,0,0.956-0.009,1.318-0.025c0.363-0.018,0.649-0.073,0.859-0.17
		c0.294-0.131,0.487-0.299,0.578-0.506S372.754,131.848,372.754,131.576z M373.545,136.729c0-0.402-0.078-0.713-0.234-0.931
		c-0.155-0.219-0.42-0.382-0.793-0.489c-0.254-0.073-0.605-0.113-1.052-0.119c-0.447-0.006-0.914-0.009-1.401-0.009h-0.713v3.155
		h0.238c0.917,0,1.573-0.002,1.969-0.008s0.761-0.08,1.095-0.222c0.34-0.142,0.573-0.33,0.7-0.565
		C373.481,137.307,373.545,137.036,373.545,136.729z"/>
	<path fill="#698DBD" d="M382.008,129.747h-3.24v-2.321h3.24V129.747z M381.923,140.659h-3.07v-9.551h3.07V140.659z"/>
	<path fill="#698DBD" d="M394.221,135.888c0,1.57-0.458,2.809-1.374,3.713c-0.916,0.904-2.201,1.356-3.857,1.356
		s-2.941-0.452-3.857-1.356c-0.916-0.904-1.374-2.143-1.374-3.713c0-1.582,0.46-2.823,1.382-3.725
		c0.921-0.902,2.204-1.353,3.849-1.353c1.667,0,2.956,0.453,3.866,1.36S394.221,134.317,394.221,135.888z M390.454,138.21
		c0.198-0.244,0.347-0.537,0.447-0.881c0.099-0.343,0.148-0.817,0.148-1.424c0-0.562-0.051-1.032-0.153-1.412
		s-0.244-0.684-0.425-0.91c-0.182-0.232-0.4-0.396-0.655-0.493c-0.255-0.097-0.53-0.145-0.825-0.145s-0.557,0.039-0.787,0.119
		c-0.229,0.079-0.45,0.238-0.659,0.476c-0.187,0.222-0.336,0.525-0.446,0.91c-0.111,0.386-0.166,0.871-0.166,1.455
		c0,0.521,0.048,0.974,0.145,1.356c0.096,0.383,0.238,0.69,0.425,0.923c0.181,0.221,0.398,0.383,0.65,0.484
		c0.252,0.103,0.54,0.153,0.863,0.153c0.278,0,0.543-0.047,0.795-0.141S390.278,138.431,390.454,138.21z"/>
	<path fill="#698DBD" d="M399.223,129.747h-3.24v-2.321h3.24V129.747z M399.138,140.659h-3.07v-9.551h3.07V140.659z"/>
	<path fill="#698DBD" d="M411.266,140.659h-3.07v-4.737c0-0.386-0.02-0.77-0.059-1.152c-0.04-0.383-0.108-0.665-0.205-0.847
		c-0.113-0.209-0.279-0.362-0.497-0.459s-0.522-0.145-0.914-0.145c-0.278,0-0.56,0.046-0.847,0.136
		c-0.286,0.091-0.597,0.235-0.932,0.434v6.771h-3.07v-9.551h3.07v1.055c0.544-0.426,1.066-0.752,1.567-0.979s1.058-0.34,1.669-0.34
		c1.031,0,1.836,0.3,2.417,0.901c0.581,0.601,0.87,1.5,0.87,2.696V140.659z"/>
	<path fill="#698DBD" d="M419.925,129.671h-0.229c-0.135-0.04-0.313-0.085-0.529-0.137c-0.219-0.051-0.451-0.076-0.7-0.076
		c-0.599,0-1.005,0.107-1.217,0.323s-0.318,0.632-0.318,1.25v0.077h2.356v2.075h-2.254v7.476h-3.07v-7.476h-1.311v-2.075h1.311
		v-0.264c0-1.168,0.311-2.044,0.932-2.629c0.62-0.583,1.561-0.876,2.818-0.876c0.454,0,0.865,0.016,1.234,0.047
		c0.367,0.031,0.693,0.072,0.978,0.124V129.671z"/>
	<path fill="#698DBD" d="M430.506,135.888c0,1.57-0.458,2.809-1.374,3.713c-0.915,0.904-2.201,1.356-3.856,1.356
		c-1.656,0-2.941-0.452-3.857-1.356s-1.373-2.143-1.373-3.713c0-1.582,0.46-2.823,1.381-3.725c0.922-0.902,2.205-1.353,3.85-1.353
		c1.666,0,2.955,0.453,3.865,1.36S430.506,134.317,430.506,135.888z M426.738,138.21c0.197-0.244,0.347-0.537,0.446-0.881
		c0.099-0.343,0.148-0.817,0.148-1.424c0-0.562-0.051-1.032-0.153-1.412c-0.102-0.38-0.244-0.684-0.425-0.91
		c-0.182-0.232-0.399-0.396-0.655-0.493c-0.255-0.097-0.529-0.145-0.824-0.145s-0.558,0.039-0.787,0.119
		c-0.229,0.079-0.449,0.238-0.659,0.476c-0.187,0.222-0.336,0.525-0.446,0.91c-0.111,0.386-0.166,0.871-0.166,1.455
		c0,0.521,0.048,0.974,0.145,1.356c0.096,0.383,0.238,0.69,0.426,0.923c0.181,0.221,0.398,0.383,0.65,0.484
		c0.252,0.103,0.539,0.153,0.863,0.153c0.277,0,0.543-0.047,0.795-0.141S426.563,138.431,426.738,138.21z"/>
	<path fill="#698DBD" d="M439.274,134.025h-0.271c-0.13-0.046-0.34-0.079-0.628-0.103c-0.289-0.022-0.529-0.034-0.722-0.034
		c-0.436,0-0.82,0.029-1.154,0.086c-0.333,0.057-0.692,0.152-1.077,0.289v6.396h-3.07v-9.551h3.07v1.403
		c0.673-0.579,1.258-0.963,1.756-1.152c0.498-0.19,0.957-0.285,1.375-0.285c0.107,0,0.229,0.003,0.365,0.008
		c0.136,0.006,0.254,0.015,0.356,0.026V134.025z"/>
	<path fill="#698DBD" d="M449.991,133.889v6.771h-3.07v-4.771c0-0.465-0.011-0.86-0.034-1.187c-0.022-0.326-0.085-0.591-0.188-0.795
		c-0.102-0.204-0.256-0.354-0.463-0.446c-0.207-0.094-0.498-0.141-0.872-0.141c-0.3,0-0.593,0.061-0.876,0.183
		s-0.539,0.251-0.766,0.387v6.771h-3.07v-9.551h3.07v1.055c0.527-0.414,1.031-0.737,1.512-0.97c0.482-0.232,1.014-0.349,1.598-0.349
		c0.629,0,1.184,0.14,1.665,0.421c0.481,0.28,0.857,0.693,1.13,1.237c0.611-0.516,1.205-0.922,1.783-1.217
		c0.577-0.294,1.144-0.441,1.698-0.441c1.03,0,1.813,0.309,2.349,0.927s0.803,1.508,0.803,2.671v6.217h-3.07v-4.771
		c0-0.471-0.01-0.867-0.03-1.19c-0.02-0.323-0.081-0.587-0.183-0.791c-0.097-0.204-0.25-0.354-0.459-0.446
		c-0.21-0.094-0.505-0.141-0.885-0.141c-0.256,0-0.505,0.044-0.748,0.132C450.641,133.539,450.343,133.685,449.991,133.889z"/>
	<path fill="#698DBD" d="M464.527,139.647c-0.165,0.124-0.369,0.274-0.613,0.45s-0.473,0.314-0.688,0.417
		c-0.301,0.136-0.612,0.236-0.936,0.302s-0.678,0.098-1.063,0.098c-0.907,0-1.667-0.28-2.279-0.842s-0.918-1.278-0.918-2.151
		c0-0.698,0.155-1.268,0.467-1.71c0.313-0.442,0.754-0.791,1.327-1.046c0.567-0.255,1.271-0.437,2.109-0.545
		c0.839-0.107,1.71-0.187,2.61-0.237v-0.052c0-0.527-0.215-0.892-0.646-1.093s-1.066-0.302-1.905-0.302
		c-0.505,0-1.043,0.09-1.616,0.268c-0.573,0.179-0.983,0.316-1.233,0.413h-0.28v-2.305c0.323-0.085,0.849-0.187,1.577-0.303
		s1.459-0.174,2.19-0.174c1.741,0,2.999,0.268,3.772,0.804s1.16,1.376,1.16,2.521v6.498h-3.035V139.647z M464.527,138.161v-1.984
		c-0.414,0.034-0.863,0.081-1.344,0.141c-0.482,0.059-0.849,0.128-1.098,0.207c-0.307,0.097-0.541,0.236-0.701,0.42
		c-0.162,0.184-0.243,0.425-0.243,0.725c0,0.198,0.017,0.359,0.052,0.483c0.033,0.124,0.118,0.243,0.254,0.356
		c0.131,0.112,0.287,0.196,0.469,0.25s0.465,0.08,0.85,0.08c0.307,0,0.617-0.062,0.932-0.187
		C464.012,138.528,464.289,138.364,464.527,138.161z"/>
	<path fill="#698DBD" d="M476.137,140.575c-0.329,0.085-0.678,0.151-1.046,0.199c-0.369,0.048-0.82,0.072-1.353,0.072
		c-1.191,0-2.077-0.241-2.658-0.724c-0.581-0.481-0.872-1.307-0.872-2.475v-4.465h-1.259v-2.075h1.259v-2.73h3.07v2.73h2.858v2.075
		h-2.858v3.39c0,0.335,0.003,0.628,0.009,0.878c0.006,0.249,0.051,0.474,0.136,0.673c0.079,0.198,0.219,0.356,0.42,0.473
		c0.2,0.116,0.493,0.175,0.878,0.175c0.158,0,0.365-0.034,0.623-0.103c0.257-0.068,0.437-0.13,0.538-0.188h0.255V140.575z"/>
	<path fill="#698DBD" d="M480.772,129.747h-3.241v-2.321h3.241V129.747z M480.688,140.659h-3.07v-9.551h3.07V140.659z"/>
	<path fill="#698DBD" d="M488.197,140.914c-0.833,0-1.595-0.099-2.283-0.298c-0.688-0.198-1.288-0.504-1.799-0.918
		c-0.505-0.414-0.896-0.936-1.174-1.565c-0.277-0.629-0.417-1.366-0.417-2.211c0-0.89,0.149-1.658,0.447-2.305
		c0.297-0.646,0.713-1.183,1.246-1.607c0.516-0.402,1.11-0.697,1.785-0.885s1.375-0.28,2.102-0.28c0.651,0,1.253,0.07,1.803,0.212
		c0.55,0.143,1.063,0.326,1.539,0.553v2.611h-0.433c-0.119-0.102-0.262-0.221-0.429-0.357c-0.167-0.136-0.373-0.269-0.616-0.399
		c-0.232-0.125-0.486-0.229-0.764-0.311c-0.278-0.082-0.601-0.123-0.969-0.123c-0.815,0-1.442,0.259-1.881,0.778
		c-0.439,0.519-0.658,1.224-0.658,2.113c0,0.919,0.225,1.616,0.675,2.092c0.45,0.477,1.089,0.715,1.915,0.715
		c0.386,0,0.732-0.044,1.041-0.132s0.564-0.191,0.769-0.311c0.192-0.113,0.362-0.232,0.509-0.357
		c0.147-0.124,0.283-0.246,0.408-0.365h0.433v2.611c-0.481,0.227-0.985,0.406-1.51,0.54
		C489.412,140.848,488.833,140.914,488.197,140.914z"/>
	<path fill="#698DBD" d="M501.423,137.632c0,0.986-0.442,1.781-1.327,2.385c-0.885,0.604-2.095,0.906-3.632,0.906
		c-0.851,0-1.621-0.079-2.313-0.238c-0.691-0.158-1.247-0.334-1.667-0.527v-2.518h0.281c0.153,0.108,0.33,0.226,0.531,0.354
		c0.201,0.127,0.486,0.265,0.854,0.412c0.317,0.131,0.678,0.242,1.08,0.336c0.403,0.094,0.834,0.141,1.293,0.141
		c0.602,0,1.046-0.066,1.336-0.2c0.289-0.133,0.434-0.33,0.434-0.591c0-0.232-0.085-0.401-0.256-0.506
		c-0.17-0.105-0.493-0.206-0.969-0.303c-0.228-0.051-0.535-0.105-0.923-0.165c-0.389-0.06-0.742-0.132-1.06-0.217
		c-0.867-0.228-1.511-0.58-1.931-1.06c-0.419-0.479-0.629-1.075-0.629-1.79c0-0.919,0.435-1.683,1.306-2.292
		c0.87-0.609,2.06-0.914,3.567-0.914c0.715,0,1.399,0.072,2.055,0.217c0.654,0.145,1.166,0.299,1.535,0.463v2.416h-0.264
		c-0.454-0.313-0.972-0.565-1.553-0.762c-0.581-0.195-1.169-0.293-1.765-0.293c-0.493,0-0.909,0.067-1.246,0.204
		c-0.337,0.136-0.506,0.329-0.506,0.578c0,0.227,0.076,0.399,0.229,0.519s0.513,0.238,1.08,0.357
		c0.312,0.063,0.647,0.123,1.008,0.183s0.722,0.135,1.085,0.226c0.805,0.21,1.4,0.54,1.786,0.991
		C501.229,136.394,501.423,136.957,501.423,137.632z"/>
	<path fill="#698DBD" d="M520.398,140.659h-3.146l-5.376-8.692v8.692h-2.993v-12.664h3.903l4.618,7.255v-7.255h2.994V140.659z"/>
	<path fill="#698DBD" d="M532.519,136.449h-7.008c0.045,0.748,0.33,1.321,0.854,1.718c0.524,0.397,1.297,0.596,2.317,0.596
		c0.646,0,1.272-0.116,1.88-0.349c0.606-0.232,1.086-0.482,1.438-0.749h0.34v2.458c-0.691,0.278-1.344,0.479-1.956,0.604
		c-0.612,0.124-1.29,0.187-2.033,0.187c-1.916,0-3.385-0.431-4.405-1.293c-1.021-0.861-1.531-2.089-1.531-3.683
		c0-1.576,0.483-2.824,1.45-3.746c0.967-0.921,2.292-1.382,3.977-1.382c1.554,0,2.722,0.393,3.504,1.178s1.174,1.915,1.174,3.39
		V136.449z M529.474,134.654c-0.017-0.641-0.176-1.122-0.477-1.445c-0.3-0.323-0.769-0.485-1.403-0.485
		c-0.59,0-1.074,0.153-1.454,0.46c-0.38,0.306-0.593,0.796-0.638,1.471H529.474z"/>
	<path fill="#698DBD" d="M540.438,140.575c-0.329,0.085-0.678,0.151-1.046,0.199c-0.369,0.048-0.82,0.072-1.353,0.072
		c-1.191,0-2.077-0.241-2.658-0.724c-0.581-0.481-0.872-1.307-0.872-2.475v-4.465h-1.259v-2.075h1.259v-2.73h3.07v2.73h2.858v2.075
		h-2.858v3.39c0,0.335,0.003,0.628,0.009,0.878c0.006,0.249,0.051,0.474,0.136,0.673c0.079,0.198,0.219,0.356,0.42,0.473
		c0.2,0.116,0.493,0.175,0.878,0.175c0.158,0,0.365-0.034,0.623-0.103c0.257-0.068,0.437-0.13,0.538-0.188h0.255V140.575z"/>
	<path fill="#698DBD" d="M557.15,131.108l-2.96,9.551h-3.25l-1.946-6.438l-1.923,6.438h-3.282l-2.935-9.551h3.212l1.64,6.582
		l2.037-6.582h2.714l1.938,6.582l1.612-6.582H557.15z"/>
	<path fill="#698DBD" d="M568.395,135.888c0,1.57-0.458,2.809-1.374,3.713s-2.201,1.356-3.856,1.356
		c-1.656,0-2.941-0.452-3.857-1.356s-1.374-2.143-1.374-3.713c0-1.582,0.461-2.823,1.383-3.725c0.921-0.902,2.204-1.353,3.849-1.353
		c1.667,0,2.955,0.453,3.865,1.36S568.395,134.317,568.395,135.888z M564.627,138.21c0.198-0.244,0.347-0.537,0.446-0.881
		c0.099-0.343,0.148-0.817,0.148-1.424c0-0.562-0.051-1.032-0.153-1.412c-0.102-0.38-0.243-0.684-0.425-0.91
		c-0.182-0.232-0.399-0.396-0.655-0.493c-0.255-0.097-0.53-0.145-0.824-0.145c-0.295,0-0.558,0.039-0.787,0.119
		c-0.229,0.079-0.449,0.238-0.659,0.476c-0.188,0.222-0.336,0.525-0.446,0.91c-0.11,0.386-0.166,0.871-0.166,1.455
		c0,0.521,0.048,0.974,0.145,1.356s0.238,0.69,0.425,0.923c0.182,0.221,0.398,0.383,0.651,0.484c0.252,0.103,0.54,0.153,0.863,0.153
		c0.277,0,0.543-0.047,0.795-0.141S564.451,138.431,564.627,138.21z"/>
	<path fill="#698DBD" d="M577.163,134.025h-0.271c-0.131-0.046-0.34-0.079-0.628-0.103c-0.289-0.022-0.529-0.034-0.722-0.034
		c-0.436,0-0.82,0.029-1.154,0.086s-0.693,0.152-1.077,0.289v6.396h-3.07v-9.551h3.07v1.403c0.673-0.579,1.259-0.963,1.756-1.152
		c0.498-0.19,0.956-0.285,1.375-0.285c0.107,0,0.229,0.003,0.365,0.008c0.136,0.006,0.255,0.015,0.356,0.026V134.025z"/>
	<path fill="#698DBD" d="M588.688,140.659h-3.563l-2.678-4.153l-0.826,1.018v3.136h-3.07v-13.233h3.07v7.894l3.288-4.211h3.532
		l-3.432,4.116L588.688,140.659z"/>
	<path fill="#698DBD" d="M601.685,129.671h-0.229c-0.136-0.04-0.313-0.085-0.529-0.137c-0.218-0.051-0.451-0.076-0.7-0.076
		c-0.6,0-1.005,0.107-1.217,0.323s-0.318,0.632-0.318,1.25v0.077h2.356v2.075h-2.254v7.476h-3.07v-7.476h-1.311v-2.075h1.311v-0.264
		c0-1.168,0.311-2.044,0.931-2.629c0.621-0.583,1.562-0.876,2.819-0.876c0.454,0,0.865,0.016,1.233,0.047
		c0.369,0.031,0.694,0.072,0.979,0.124V129.671z"/>
	<path fill="#698DBD" d="M612.265,135.888c0,1.57-0.458,2.809-1.374,3.713s-2.201,1.356-3.856,1.356
		c-1.656,0-2.941-0.452-3.857-1.356s-1.374-2.143-1.374-3.713c0-1.582,0.461-2.823,1.383-3.725c0.921-0.902,2.204-1.353,3.849-1.353
		c1.667,0,2.955,0.453,3.865,1.36S612.265,134.317,612.265,135.888z M608.497,138.21c0.198-0.244,0.347-0.537,0.446-0.881
		c0.099-0.343,0.148-0.817,0.148-1.424c0-0.562-0.051-1.032-0.153-1.412c-0.102-0.38-0.243-0.684-0.425-0.91
		c-0.182-0.232-0.399-0.396-0.655-0.493c-0.255-0.097-0.53-0.145-0.824-0.145c-0.295,0-0.558,0.039-0.787,0.119
		c-0.229,0.079-0.449,0.238-0.659,0.476c-0.188,0.222-0.336,0.525-0.446,0.91c-0.11,0.386-0.166,0.871-0.166,1.455
		c0,0.521,0.048,0.974,0.145,1.356s0.238,0.69,0.425,0.923c0.182,0.221,0.398,0.383,0.651,0.484c0.252,0.103,0.54,0.153,0.863,0.153
		c0.277,0,0.543-0.047,0.795-0.141S608.321,138.431,608.497,138.21z"/>
	<path fill="#698DBD" d="M621.034,134.025h-0.271c-0.131-0.046-0.34-0.079-0.628-0.103c-0.289-0.022-0.529-0.034-0.722-0.034
		c-0.436,0-0.82,0.029-1.154,0.086s-0.693,0.152-1.077,0.289v6.396h-3.07v-9.551h3.07v1.403c0.673-0.579,1.259-0.963,1.756-1.152
		c0.498-0.19,0.956-0.285,1.375-0.285c0.107,0,0.229,0.003,0.365,0.008c0.136,0.006,0.255,0.015,0.356,0.026V134.025z"/>
	<path fill="#698DBD" d="M639.551,140.659h-3.267v-5.579h-4.822v5.579h-3.266v-12.664h3.266v4.636h4.822v-4.636h3.267V140.659z"/>
	<path fill="#698DBD" d="M651.092,134.723c0.277,0.238,0.499,0.516,0.663,0.833c0.164,0.318,0.247,0.74,0.247,1.268
		c0,0.596-0.118,1.151-0.354,1.667c-0.235,0.517-0.597,0.958-1.084,1.327c-0.477,0.357-1.036,0.631-1.68,0.82
		c-0.644,0.19-1.425,0.285-2.344,0.285c-1.049,0-1.949-0.082-2.7-0.247c-0.751-0.164-1.362-0.349-1.833-0.553v-2.781h0.332
		c0.487,0.295,1.07,0.551,1.748,0.766c0.677,0.216,1.297,0.323,1.858,0.323c0.328,0,0.686-0.026,1.071-0.081
		c0.386-0.054,0.712-0.171,0.979-0.353c0.209-0.142,0.377-0.313,0.501-0.515c0.125-0.201,0.188-0.492,0.188-0.872
		c0-0.368-0.085-0.653-0.255-0.854s-0.395-0.345-0.672-0.43c-0.278-0.09-0.612-0.14-1.004-0.148s-0.754-0.013-1.089-0.013h-0.697
		v-2.263h0.723c0.442,0,0.834-0.014,1.174-0.042c0.341-0.028,0.63-0.094,0.868-0.196c0.249-0.107,0.437-0.251,0.561-0.429
		c0.125-0.179,0.188-0.441,0.188-0.787c0-0.255-0.065-0.461-0.195-0.616c-0.131-0.156-0.295-0.279-0.493-0.37
		c-0.222-0.103-0.482-0.17-0.783-0.204s-0.559-0.052-0.773-0.052c-0.533,0-1.111,0.093-1.735,0.276
		c-0.624,0.185-1.228,0.45-1.812,0.796h-0.314v-2.747c0.465-0.188,1.097-0.367,1.896-0.54s1.61-0.26,2.433-0.26
		c0.799,0,1.499,0.069,2.101,0.208c0.601,0.14,1.097,0.325,1.488,0.558c0.465,0.277,0.811,0.615,1.038,1.012
		c0.227,0.397,0.34,0.862,0.34,1.396c0,0.703-0.219,1.331-0.655,1.884s-1.012,0.905-1.727,1.059v0.119
		c0.289,0.04,0.596,0.119,0.919,0.238S650.825,134.496,651.092,134.723z"/>
	<path fill="#698DBD" d="M666.172,140.659h-3.373l-0.882-2.56h-4.687l-0.883,2.56h-3.291l4.678-12.664h3.76L666.172,140.659z
		 M661.132,135.777l-1.559-4.537l-1.559,4.537H661.132z"/>
	<path fill="#698DBD" d="M673.665,129.671h-0.229c-0.136-0.04-0.313-0.085-0.529-0.137c-0.218-0.051-0.451-0.076-0.7-0.076
		c-0.6,0-1.005,0.107-1.217,0.323s-0.318,0.632-0.318,1.25v0.077h2.356v2.075h-2.254v7.476h-3.07v-7.476h-1.311v-2.075h1.311v-0.264
		c0-1.168,0.311-2.044,0.931-2.629c0.621-0.583,1.562-0.876,2.819-0.876c0.454,0,0.865,0.016,1.233,0.047
		c0.369,0.031,0.694,0.072,0.979,0.124V129.671z"/>
	<path fill="#698DBD" d="M681.405,134.025h-0.271c-0.131-0.046-0.34-0.079-0.628-0.103c-0.289-0.022-0.529-0.034-0.722-0.034
		c-0.436,0-0.82,0.029-1.154,0.086s-0.693,0.152-1.077,0.289v6.396h-3.07v-9.551h3.07v1.403c0.673-0.579,1.259-0.963,1.756-1.152
		c0.498-0.19,0.956-0.285,1.375-0.285c0.107,0,0.229,0.003,0.365,0.008c0.136,0.006,0.255,0.015,0.356,0.026V134.025z"/>
	<path fill="#698DBD" d="M685.947,129.747h-3.241v-2.321h3.241V129.747z M685.862,140.659h-3.07v-9.551h3.07V140.659z"/>
	<path fill="#698DBD" d="M693.372,140.914c-0.833,0-1.595-0.099-2.283-0.298c-0.688-0.198-1.288-0.504-1.799-0.918
		c-0.505-0.414-0.896-0.936-1.174-1.565c-0.277-0.629-0.417-1.366-0.417-2.211c0-0.89,0.149-1.658,0.447-2.305
		c0.297-0.646,0.713-1.183,1.246-1.607c0.516-0.402,1.11-0.697,1.785-0.885s1.375-0.28,2.102-0.28c0.651,0,1.253,0.07,1.803,0.212
		c0.55,0.143,1.063,0.326,1.539,0.553v2.611h-0.433c-0.119-0.102-0.262-0.221-0.429-0.357c-0.167-0.136-0.373-0.269-0.616-0.399
		c-0.232-0.125-0.486-0.229-0.764-0.311c-0.278-0.082-0.601-0.123-0.969-0.123c-0.815,0-1.442,0.259-1.881,0.778
		c-0.439,0.519-0.658,1.224-0.658,2.113c0,0.919,0.225,1.616,0.675,2.092c0.45,0.477,1.089,0.715,1.915,0.715
		c0.386,0,0.732-0.044,1.041-0.132s0.564-0.191,0.769-0.311c0.192-0.113,0.362-0.232,0.509-0.357
		c0.147-0.124,0.283-0.246,0.408-0.365h0.433v2.611c-0.481,0.227-0.985,0.406-1.51,0.54
		C694.587,140.848,694.008,140.914,693.372,140.914z"/>
	<path fill="#698DBD" d="M704.081,139.647c-0.165,0.124-0.369,0.274-0.612,0.45c-0.244,0.176-0.474,0.314-0.689,0.417
		c-0.301,0.136-0.612,0.236-0.936,0.302s-0.678,0.098-1.063,0.098c-0.907,0-1.667-0.28-2.279-0.842s-0.919-1.278-0.919-2.151
		c0-0.698,0.156-1.268,0.468-1.71s0.754-0.791,1.327-1.046c0.566-0.255,1.27-0.437,2.109-0.545c0.839-0.107,1.709-0.187,2.61-0.237
		v-0.052c0-0.527-0.215-0.892-0.646-1.093c-0.431-0.201-1.065-0.302-1.905-0.302c-0.504,0-1.043,0.09-1.615,0.268
		c-0.573,0.179-0.984,0.316-1.233,0.413h-0.281v-2.305c0.323-0.085,0.85-0.187,1.578-0.303s1.459-0.174,2.19-0.174
		c1.74,0,2.998,0.268,3.771,0.804c0.774,0.536,1.161,1.376,1.161,2.521v6.498h-3.036V139.647z M704.081,138.161v-1.984
		c-0.414,0.034-0.862,0.081-1.344,0.141c-0.482,0.059-0.848,0.128-1.098,0.207c-0.306,0.097-0.54,0.236-0.701,0.42
		c-0.162,0.184-0.242,0.425-0.242,0.725c0,0.198,0.017,0.359,0.051,0.483s0.119,0.243,0.255,0.356
		c0.131,0.112,0.286,0.196,0.468,0.25s0.465,0.08,0.851,0.08c0.307,0,0.616-0.062,0.932-0.187
		C703.566,138.528,703.843,138.364,704.081,138.161z"/>
</g>
</svg>
